PathFileType	4	(X/Y/Z)	C:\Users\Vitor Bertoli\OneDrive\Documents\Yolotestes\IMG_0214_Sports2D\IMG_0214_Sports2D_m_person00.trc
DataRate	CameraRate	NumFrames	NumMarkers	Units	OrigDataRate	OrigDataStartFrame	OrigNumFrames
120	120	7	22	m	120	237	633
Frame#	Time	Hip			RHip			RKnee			RAnkle			RBigToe			RSmallToe			RHeel			LHip			LKnee			LAnkle			LBigToe			LSmallToe			LHeel			Neck			Head			Nose			RShoulder			RElbow			RWrist			LShoulder			LElbow			LWrist		
		X1	Y1	Z1	X2	Y2	Z2	X3	Y3	Z3	X4	Y4	Z4	X5	Y5	Z5	X6	Y6	Z6	X7	Y7	Z7	X8	Y8	Z8	X9	Y9	Z9	X10	Y10	Z10	X11	Y11	Z11	X12	Y12	Z12	X13	Y13	Z13	X14	Y14	Z14	X15	Y15	Z15	X16	Y16	Z16	X17	Y17	Z17	X18	Y18	Z18	X19	Y19	Z19	X20	Y20	Z20	X21	Y21	Z21	X22	Y22	Z22
237	1.9749999999999999	2.112802109327532	0.7702662156302087	0.0	2.02992709770527	0.7895492390093092	0.0	1.8551035575804298	0.36921952694524046	0.0	1.4333635222381536	0.1685128799579051	0.0	1.4769644150096768	-0.02197377601268531	0.0	1.4237129235741972	0.0005273807664363346	0.0	1.3455845225815468	0.16865098663992759	0.0	2.2130161586063304	0.757094793944581	0.0	2.393916626013556	0.44254964332415103	0.0	2.0646254932290087	0.12645413113461834	0.0	2.1990628715100122	-0.006298629520990868	0.0	2.199191256729574	0.01651936152048874	0.0	1.985497623699493	0.0816665050059845	0.0	2.602223478138631	1.1584213689858853	0.0	2.844883424082096	1.2849997759679315	0.0	2.8034215480027322	1.1497405733150996	0.0	2.499732897577425	1.1602857352564617	0.0	2.25714897094184	0.9675473262734264	0.0	2.473156121380953	0.7821911931778285	0.0	2.548167864442012	1.1205078299875797	0.0	2.28317908962801	1.0483347901714026	0.0	2.2280880088187147	0.8086961382694091	0.0
238	1.9833333333333334	2.1289076825415525	0.7712269000315914	0.0	2.0458118537525363	0.7906668141025401	0.0	1.8741573025610736	0.3685438300756726	0.0	1.446945931125814	0.1760897566369417	0.0	1.480156016211574	-0.018807409385811172	0.0	1.4273499237797607	0.00498451911020642	0.0	1.3610387021003794	0.18026653766978995	0.0	2.227780864248584	0.7561755722727989	0.0	2.4012290638200113	0.43719674110674495	0.0	2.0661638989707924	0.12744255773316598	0.0	2.1979138128111813	-0.007682211349894749	0.0	2.1991817098803583	0.014945069545900686	0.0	1.9867522252897911	0.08360199861612205	0.0	2.6173715854860333	1.16164893866677	0.0	2.860497645930488	1.2877067099366506	0.0	2.8186202567295773	1.1522690905098005	0.0	2.5149590104609367	1.1656581998519604	0.0	2.265621260226791	0.9812789538898656	0.0	2.4743819276470562	0.7892317374460875	0.0	2.5655191689429007	1.121461519407531	0.0	2.2979891299260466	1.0476718743602034	0.0	2.2503493093961886	0.8076050509424471	0.0
239	1.9916666666666667	2.145117624990713	0.7724385903156458	0.0	2.0620439667821953	0.7922932610426728	0.0	1.8959391446762874	0.36713287182834203	0.0	1.4633877358773661	0.18434610110382357	0.0	1.485830452447345	-0.01482183767678558	0.0	1.4337106475295027	0.010207201419508856	0.0	1.379736079011948	0.1926273486343238	0.0	2.242549474335945	0.7557369735783591	0.0	2.408187601265246	0.4320454736616197	0.0	2.0676376892623636	0.12846438261766072	0.0	2.197270426994549	-0.008969687859433476	0.0	2.199043728387849	0.013263658228711974	0.0	1.9881306303607247	0.0855325401995229	0.0	2.6322899110627924	1.164822641054746	0.0	2.876841920009874	1.2900547710699526	0.0	2.833830760188067	1.1550795196587171	0.0	2.5301496062417623	1.1709203824708379	0.0	2.273467009487078	0.9951964292450259	0.0	2.472871410579524	0.7948852348440539	0.0	2.5826304299260654	1.122814513102004	0.0	2.313144536001446	1.0458352180196133	0.0	2.272794750678644	0.8053760113433086	0.0
240	2.0	2.161445027658771	0.7739067361988956	0.0	2.0786313306401336	0.7944361882653181	0.0	1.9205212939743175	0.3650646493827711	0.0	1.4828721337077038	0.19323965303048316	0.0	1.4944785531554723	-0.00992175271518483	0.0	1.443275719620747	0.01628895962777048	0.0	1.4017527113451005	0.20554517630109354	0.0	2.2573477494095244	0.7559061235311886	0.0	2.414871987371699	0.4271535856800712	0.0	2.0690614618310703	0.12954826957744298	0.0	2.1971425859310894	-0.010107502159575218	0.0	2.1987827788816245	0.011532392805236564	0.0	1.989593880217622	0.08747250309691179	0.0	2.646969845208766	1.1678578804918893	0.0	2.893878983028896	1.2919520643519835	0.0	2.8490396676179124	1.1580826537278004	0.0	2.54528204528241	1.175964448280676	0.0	2.2807785007912544	1.009058645959911	0.0	2.4686104194966147	0.7992301227196014	0.0	2.5993692867717315	1.124523481614362	0.0	2.328810694448418	1.0427832226063205	0.0	2.29513552425424	0.8019432713885859	0.0
241	2.0083333333333333	2.177932927965614	0.7756373335025756	0.0	2.095609915476764	0.7970526376676693	0.0	1.9479555970267266	0.3625065463558857	0.0	1.5055004423014444	0.2026697550452304	0.0	1.506575487638012	-0.004047560330492927	0.0	1.4564937528757653	0.023287862415379387	0.0	1.4270408582342349	0.21878371497209345	0.0	2.2721972116181592	0.756778360148032	0.0	2.42137762804032	0.42256155237000054	0.0	2.070441133336437	0.130693128856972	0.0	2.197521249733545	-0.011054444380270985	0.0	2.19841730503903	0.009823056116371832	0.0	1.991099452804549	0.08943171042085907	0.0	2.661480516162576	1.17070454228657	0.0	2.911460326626277	1.2933921463010223	0.0	2.8642788258941794	1.1611988677315175	0.0	2.5603755422306556	1.1806778303419962	0.0	2.287692293166266	1.0226707238378472	0.0	2.461606839293793	0.8024718461884203	0.0	2.615693061272595	1.1264925553798404	0.0	2.345272409106786	1.0384149129439326	0.0	2.317179026170111	0.7971783350774733	0.0
242	2.0166666666666666	2.194636577904989	0.7776236743659903	0.0	2.1130357878568247	0.8000380567281189	0.0	1.9782544679361376	0.3597094369857167	0.0	1.531300279119178	0.21248398179056666	0.0	1.522536950544064	0.002798101447591663	0.0	1.4737369369248594	0.031198915873631113	0.0	1.455458769687841	0.23208577561648508	0.0	2.287105915994301	0.758386210167492	0.0	2.4278116436062853	0.41828138846373186	0.0	2.0717831800117867	0.13184848395957394	0.0	2.198383922685545	-0.011781649151429888	0.0	2.1979685221844796	0.008223703171262671	0.0	1.9926167104131833	0.09141994441991855	0.0	2.6759732243011936	1.173346706103488	0.0	2.9293260859454784	1.2944744432500526	0.0	2.87962162145679	1.1643615018321962	0.0	2.5754925466611307	1.1849528241143563	0.0	2.2943781831357866	1.0359048206985546	0.0	2.4518784884073592	0.8049377099264218	0.0	2.6316638199692513	1.1285856132237224	0.0	2.3629095803396933	1.0325177070648626	0.0	2.33885858474956	0.7908623428193006	0.0
243	2.025	2.211598534035742	0.779848528231107	0.0	2.1309606312392657	0.8032694201644391	0.0	2.0113747379739	0.3569915207492901	0.0	1.56024698621102	0.22247854677325504	0.0	1.542670618862775	0.010517897652231089	0.0	1.4952659377450883	0.03991876879746719	0.0	1.486819012568494	0.24516343990311731	0.0	2.302060353152162	0.7607020551340502	0.0	2.4342717085655052	0.41430571339011646	0.0	2.073110951078801	0.13294262557866074	0.0	2.199673434577697	-0.012240284132017836	0.0	2.197475456123668	0.0068504189961660885	0.0	1.994139618575098	0.09341634881868031	0.0	2.690613459790659	1.175794517241213	0.0	2.947207225959692	1.2953577267161105	0.0	2.895137779706706	1.1675045806534188	0.0	2.5907210455352585	1.1887057045631968	0.0	2.3010366991540327	1.0486972483760248	0.0	2.439450182951905	0.8070402267138208	0.0	2.647395890800818	1.1306476826842502	0.0	2.382139091141289	1.0248069113502019	0.0	2.360301316708689	0.7827071610623864	0.0
